<svg width="75" height="76" viewBox="0 0 75 76" fill="none" xmlns="http://www.w3.org/2000/svg"><g clip-path="url(#clip0)" fill="#009473"><path d="M37.5006 11.6321c-7.9437 0-14.4561 6.5368-14.4561 14.5102 0 7.9735 6.5124 14.5103 14.4561 14.5103 7.9437 0 14.4561-6.5368 14.4561-14.5103 0-7.9734-6.5124-14.5102-14.4561-14.5102zm0 25.8598c-6.2261 0-11.3072-5.1001-11.3072-11.3496 0-6.2494 5.0811-11.3496 11.3072-11.3496 6.2262 0 11.3073 5.1002 11.3073 11.3496 0 6.2495-5.0811 11.3496-11.3073 11.3496z"/><path d="M37.4987.498047C23.4004.498047 11.95 11.9913 11.95 26.1424c0 18.0301 23.3302 47.7689 24.3321 49.0619.2863.3591.7157.5746 1.2166.5746.501 0 .9304-.2155 1.2166-.5746 1.0019-1.293 24.3321-31.0318 24.3321-49.0619C63.0474 11.9913 51.597.498047 37.4987.498047zm0 71.114553c-4.8664-6.3931-22.3998-30.8163-22.3998-45.4702 0-12.4271 10.0191-22.4837 22.3998-22.4837s22.3998 10.0566 22.3998 22.4837c0 14.6539-17.5334 39.0771-22.3998 45.4702z"/></g><defs><clipPath id="clip0"><path fill="#fff" transform="translate(0 .498047)" d="M0 0h75v75.2809H0z"/></clipPath></defs></svg>